<svg id="visual" viewBox="0 0 960 540" width="960" height="540" xmlns="http://www.w3.org/2000/svg" xmlns:xlink="http://www.w3.org/1999/xlink" version="1.1"><rect x="0" y="0" width="960" height="540" fill="#081019"></rect><path d="M0 133L10 136.7C20 140.3 40 147.7 60 148.8C80 150 100 145 120 137.2C140 129.3 160 118.7 180 109.5C200 100.3 220 92.7 240 91.3C260 90 280 95 300 112.8C320 130.7 340 161.3 360 177.7C380 194 400 196 420 187.7C440 179.3 460 160.7 480 153.3C500 146 520 150 540 150.8C560 151.7 580 149.3 600 145.5C620 141.7 640 136.3 660 139.5C680 142.7 700 154.3 720 155.7C740 157 760 148 780 141.5C800 135 820 131 840 129.3C860 127.7 880 128.3 900 128.5C920 128.7 940 128.3 950 128.2L960 128L960 0L950 0C940 0 920 0 900 0C880 0 860 0 840 0C820 0 800 0 780 0C760 0 740 0 720 0C700 0 680 0 660 0C640 0 620 0 600 0C580 0 560 0 540 0C520 0 500 0 480 0C460 0 440 0 420 0C400 0 380 0 360 0C340 0 320 0 300 0C280 0 260 0 240 0C220 0 200 0 180 0C160 0 140 0 120 0C100 0 80 0 60 0C40 0 20 0 10 0L0 0Z" fill="#081019"></path><path d="M0 182L10 175.8C20 169.7 40 157.3 60 148.3C80 139.3 100 133.7 120 126.7C140 119.7 160 111.3 180 105C200 98.7 220 94.3 240 94.8C260 95.3 280 100.7 300 110.3C320 120 340 134 360 140.2C380 146.3 400 144.7 420 135.7C440 126.7 460 110.3 480 108.7C500 107 520 120 540 127.7C560 135.3 580 137.7 600 135.3C620 133 640 126 660 133C680 140 700 161 720 171.5C740 182 760 182 780 166.3C800 150.7 820 119.3 840 101.8C860 84.3 880 80.7 900 90.3C920 100 940 123 950 134.5L960 146L960 0L950 0C940 0 920 0 900 0C880 0 860 0 840 0C820 0 800 0 780 0C760 0 740 0 720 0C700 0 680 0 660 0C640 0 620 0 600 0C580 0 560 0 540 0C520 0 500 0 480 0C460 0 440 0 420 0C400 0 380 0 360 0C340 0 320 0 300 0C280 0 260 0 240 0C220 0 200 0 180 0C160 0 140 0 120 0C100 0 80 0 60 0C40 0 20 0 10 0L0 0Z" fill="#182032"></path><path d="M0 61L10 61.5C20 62 40 63 60 65.2C80 67.3 100 70.7 120 71C140 71.3 160 68.7 180 77.2C200 85.7 220 105.3 240 112.3C260 119.3 280 113.7 300 106C320 98.3 340 88.7 360 85C380 81.3 400 83.7 420 80.3C440 77 460 68 480 77.5C500 87 520 115 540 127.8C560 140.7 580 138.3 600 124.8C620 111.3 640 86.7 660 86.7C680 86.7 700 111.3 720 128C740 144.7 760 153.3 780 151.2C800 149 820 136 840 129C860 122 880 121 900 114.3C920 107.7 940 95.3 950 89.2L960 83L960 0L950 0C940 0 920 0 900 0C880 0 860 0 840 0C820 0 800 0 780 0C760 0 740 0 720 0C700 0 680 0 660 0C640 0 620 0 600 0C580 0 560 0 540 0C520 0 500 0 480 0C460 0 440 0 420 0C400 0 380 0 360 0C340 0 320 0 300 0C280 0 260 0 240 0C220 0 200 0 180 0C160 0 140 0 120 0C100 0 80 0 60 0C40 0 20 0 10 0L0 0Z" fill="#2d2d4c"></path><path d="M0 134L10 124.5C20 115 40 96 60 89.2C80 82.3 100 87.7 120 92C140 96.3 160 99.7 180 106.5C200 113.3 220 123.7 240 114.5C260 105.3 280 76.7 300 63.7C320 50.7 340 53.3 360 64.8C380 76.3 400 96.7 420 98.2C440 99.7 460 82.3 480 77.3C500 72.3 520 79.7 540 88.5C560 97.3 580 107.7 600 116.5C620 125.3 640 132.7 660 133.5C680 134.3 700 128.7 720 127.5C740 126.3 760 129.7 780 117.2C800 104.7 820 76.3 840 75.8C860 75.3 880 102.7 900 118C920 133.3 940 136.7 950 138.3L960 140L960 0L950 0C940 0 920 0 900 0C880 0 860 0 840 0C820 0 800 0 780 0C760 0 740 0 720 0C700 0 680 0 660 0C640 0 620 0 600 0C580 0 560 0 540 0C520 0 500 0 480 0C460 0 440 0 420 0C400 0 380 0 360 0C340 0 320 0 300 0C280 0 260 0 240 0C220 0 200 0 180 0C160 0 140 0 120 0C100 0 80 0 60 0C40 0 20 0 10 0L0 0Z" fill="#4b3a63"></path><path d="M0 88L10 81.3C20 74.7 40 61.3 60 57.7C80 54 100 60 120 71.7C140 83.3 160 100.7 180 97.8C200 95 220 72 240 66.3C260 60.7 280 72.3 300 73.5C320 74.7 340 65.3 360 70.8C380 76.3 400 96.7 420 102.8C440 109 460 101 480 93.7C500 86.3 520 79.7 540 70.8C560 62 580 51 600 46.3C620 41.7 640 43.3 660 48.5C680 53.7 700 62.3 720 61.7C740 61 760 51 780 56.2C800 61.3 820 81.7 840 92C860 102.3 880 102.7 900 101.2C920 99.7 940 96.3 950 94.7L960 93L960 0L950 0C940 0 920 0 900 0C880 0 860 0 840 0C820 0 800 0 780 0C760 0 740 0 720 0C700 0 680 0 660 0C640 0 620 0 600 0C580 0 560 0 540 0C520 0 500 0 480 0C460 0 440 0 420 0C400 0 380 0 360 0C340 0 320 0 300 0C280 0 260 0 240 0C220 0 200 0 180 0C160 0 140 0 120 0C100 0 80 0 60 0C40 0 20 0 10 0L0 0Z" fill="#6e4476"></path><path d="M0 67L10 61.7C20 56.3 40 45.7 60 46.8C80 48 100 61 120 70.8C140 80.7 160 87.3 180 84.7C200 82 220 70 240 60C260 50 280 42 300 40C320 38 340 42 360 40.8C380 39.7 400 33.3 420 40C440 46.7 460 66.3 480 66.8C500 67.3 520 48.7 540 48.5C560 48.3 580 66.7 600 72.7C620 78.7 640 72.3 660 67C680 61.7 700 57.3 720 52.8C740 48.3 760 43.7 780 39C800 34.3 820 29.7 840 32.8C860 36 880 47 900 50.5C920 54 940 50 950 48L960 46L960 0L950 0C940 0 920 0 900 0C880 0 860 0 840 0C820 0 800 0 780 0C760 0 740 0 720 0C700 0 680 0 660 0C640 0 620 0 600 0C580 0 560 0 540 0C520 0 500 0 480 0C460 0 440 0 420 0C400 0 380 0 360 0C340 0 320 0 300 0C280 0 260 0 240 0C220 0 200 0 180 0C160 0 140 0 120 0C100 0 80 0 60 0C40 0 20 0 10 0L0 0Z" fill="#954d83"></path><path d="M0 53L10 53.5C20 54 40 55 60 52.3C80 49.7 100 43.3 120 36.3C140 29.3 160 21.7 180 17.7C200 13.7 220 13.3 240 19.2C260 25 280 37 300 45.3C320 53.7 340 58.3 360 59C380 59.7 400 56.3 420 57.2C440 58 460 63 480 61.8C500 60.7 520 53.3 540 44.5C560 35.7 580 25.3 600 22C620 18.7 640 22.3 660 25.7C680 29 700 32 720 30.8C740 29.7 760 24.3 780 22.2C800 20 820 21 840 28C860 35 880 48 900 46.2C920 44.3 940 27.7 950 19.3L960 11L960 0L950 0C940 0 920 0 900 0C880 0 860 0 840 0C820 0 800 0 780 0C760 0 740 0 720 0C700 0 680 0 660 0C640 0 620 0 600 0C580 0 560 0 540 0C520 0 500 0 480 0C460 0 440 0 420 0C400 0 380 0 360 0C340 0 320 0 300 0C280 0 260 0 240 0C220 0 200 0 180 0C160 0 140 0 120 0C100 0 80 0 60 0C40 0 20 0 10 0L0 0Z" fill="#bd578a"></path><path d="M0 14L10 13.2C20 12.3 40 10.7 60 9.3C80 8 100 7 120 6C140 5 160 4 180 7C200 10 220 17 240 18.5C260 20 280 16 300 13.3C320 10.7 340 9.3 360 9.5C380 9.7 400 11.3 420 12.7C440 14 460 15 480 19.8C500 24.7 520 33.3 540 33.7C560 34 580 26 600 24.3C620 22.7 640 27.3 660 28C680 28.7 700 25.3 720 24.3C740 23.3 760 24.7 780 22.5C800 20.3 820 14.7 840 15.8C860 17 880 25 900 29.5C920 34 940 35 950 35.5L960 36L960 0L950 0C940 0 920 0 900 0C880 0 860 0 840 0C820 0 800 0 780 0C760 0 740 0 720 0C700 0 680 0 660 0C640 0 620 0 600 0C580 0 560 0 540 0C520 0 500 0 480 0C460 0 440 0 420 0C400 0 380 0 360 0C340 0 320 0 300 0C280 0 260 0 240 0C220 0 200 0 180 0C160 0 140 0 120 0C100 0 80 0 60 0C40 0 20 0 10 0L0 0Z" fill="#e4628b"></path></svg>