<?xml version="1.0" encoding="UTF-8" standalone="no" ?>
<!DOCTYPE svg PUBLIC "-//W3C//DTD SVG 1.1//EN" "http://www.w3.org/Graphics/SVG/1.1/DTD/svg11.dtd">
<svg xmlns="http://www.w3.org/2000/svg" xmlns:xlink="http://www.w3.org/1999/xlink" version="1.1" width="1080" height="360" viewBox="0 0 1080 360" xml:space="preserve">
<desc>Created with Fabric.js 5.2.4</desc>
<defs>
</defs>
<rect x="0" y="0" width="100%" height="100%" fill="transparent"></rect>
<g transform="matrix(1 0 0 1 540 180)" id="fe0ceeee-af7a-4e9b-818e-0428af03cd5d"  >
<rect style="stroke: none; stroke-width: 1; stroke-dasharray: none; stroke-linecap: butt; stroke-dashoffset: 0; stroke-linejoin: miter; stroke-miterlimit: 4; fill: rgb(255,255,255); fill-rule: nonzero; opacity: 1; visibility: hidden;" vector-effect="non-scaling-stroke"  x="-540" y="-180" rx="0" ry="0" width="1080" height="360" />
</g>
<g transform="matrix(0 0 0 0 0 0)" id="86f2de22-5fbc-4ad6-abb4-f567cda93bab"  >
</g>
<g transform="matrix(1.61 0 0 1.61 576.76 204.46)"  >
<path style="stroke: none; stroke-width: 1; stroke-dasharray: none; stroke-linecap: butt; stroke-dashoffset: 0; stroke-linejoin: miter; stroke-miterlimit: 4; fill: rgb(22,7,21); fill-rule: nonzero; opacity: 1;" vector-effect="non-scaling-stroke"  transform=" translate(-450, -508.83)" d="M 0 471 L 9.3 471 C 18.7 471 37.3 471 56.2 470.5 C 75 470 94 469 112.8 467 C 131.7 465 150.3 462 169 453.5 C 187.7 445 206.3 431 225 423.8 C 243.7 416.7 262.3 416.3 281.2 416.8 C 300 417.3 319 418.7 337.8 428.3 C 356.7 438 375.3 456 394 457 C 412.7 458 431.3 442 450 435.8 C 468.7 429.7 487.3 433.3 506.2 440.7 C 525 448 544 459 562.8 467.7 C 581.7 476.3 600.3 482.7 619 484.2 C 637.7 485.7 656.3 482.3 675 473.5 C 693.7 464.7 712.3 450.3 731.2 440.7 C 750 431 769 426 787.8 426.3 C 806.7 426.7 825.3 432.3 844 439.7 C 862.7 447 881.3 456 890.7 460.5 L 900 465 L 900 601 L 890.7 601 C 881.3 601 862.7 601 844 601 C 825.3 601 806.7 601 787.8 601 C 769 601 750 601 731.2 601 C 712.3 601 693.7 601 675 601 C 656.3 601 637.7 601 619 601 C 600.3 601 581.7 601 562.8 601 C 544 601 525 601 506.2 601 C 487.3 601 468.7 601 450 601 C 431.3 601 412.7 601 394 601 C 375.3 601 356.7 601 337.8 601 C 319 601 300 601 281.2 601 C 262.3 601 243.7 601 225 601 C 206.3 601 187.7 601 169 601 C 150.3 601 131.7 601 112.8 601 C 94 601 75 601 56.2 601 C 37.3 601 18.7 601 9.3 601 L 0 601 Z" stroke-linecap="round" />
</g>
<g transform="matrix(1.61 0 0 1.61 604.09 230.42)"  >
<path style="stroke: none; stroke-width: 1; stroke-dasharray: none; stroke-linecap: butt; stroke-dashoffset: 0; stroke-linejoin: miter; stroke-miterlimit: 4; fill: rgb(54,41,50); fill-rule: nonzero; opacity: 1;" vector-effect="non-scaling-stroke"  transform=" translate(-450, -520.36)" d="M 0 456 L 9.3 454.3 C 18.7 452.7 37.3 449.3 56.2 458.7 C 75 468 94 490 112.8 487.5 C 131.7 485 150.3 458 169 446.8 C 187.7 435.7 206.3 440.3 225 443 C 243.7 445.7 262.3 446.3 281.2 449 C 300 451.7 319 456.3 337.8 456.8 C 356.7 457.3 375.3 453.7 394 459.7 C 412.7 465.7 431.3 481.3 450 490.3 C 468.7 499.3 487.3 501.7 506.2 493.7 C 525 485.7 544 467.3 562.8 458.3 C 581.7 449.3 600.3 449.7 619 458.7 C 637.7 467.7 656.3 485.3 675 482.5 C 693.7 479.7 712.3 456.3 731.2 453.8 C 750 451.3 769 469.7 787.8 477 C 806.7 484.3 825.3 480.7 844 476.3 C 862.7 472 881.3 467 890.7 464.5 L 900 462 L 900 601 L 890.7 601 C 881.3 601 862.7 601 844 601 C 825.3 601 806.7 601 787.8 601 C 769 601 750 601 731.2 601 C 712.3 601 693.7 601 675 601 C 656.3 601 637.7 601 619 601 C 600.3 601 581.7 601 562.8 601 C 544 601 525 601 506.2 601 C 487.3 601 468.7 601 450 601 C 431.3 601 412.7 601 394 601 C 375.3 601 356.7 601 337.8 601 C 319 601 300 601 281.2 601 C 262.3 601 243.7 601 225 601 C 206.3 601 187.7 601 169 601 C 150.3 601 131.7 601 112.8 601 C 94 601 75 601 56.2 601 C 37.3 601 18.7 601 9.3 601 L 0 601 Z" stroke-linecap="round" />
</g>
<g transform="matrix(1.61 0 0 1.61 483.84 239.93)"  >
<path style="stroke: none; stroke-width: 1; stroke-dasharray: none; stroke-linecap: butt; stroke-dashoffset: 0; stroke-linejoin: miter; stroke-miterlimit: 4; fill: rgb(89,75,82); fill-rule: nonzero; opacity: 1;" vector-effect="non-scaling-stroke"  transform=" translate(-450, -538)" d="M 0 514 L 9.3 508 C 18.7 502 37.3 490 56.2 488.8 C 75 487.7 94 497.3 112.8 499.2 C 131.7 501 150.3 495 169 497.5 C 187.7 500 206.3 511 225 512.5 C 243.7 514 262.3 506 281.2 498.8 C 300 491.7 319 485.3 337.8 482.5 C 356.7 479.7 375.3 480.3 394 487.2 C 412.7 494 431.3 507 450 508.3 C 468.7 509.7 487.3 499.3 506.2 490.7 C 525 482 544 475 562.8 481.2 C 581.7 487.3 600.3 506.7 619 510 C 637.7 513.3 656.3 500.7 675 496.7 C 693.7 492.7 712.3 497.3 731.2 500.8 C 750 504.3 769 506.7 787.8 502.3 C 806.7 498 825.3 487 844 481.3 C 862.7 475.7 881.3 475.3 890.7 475.2 L 900 475 L 900 601 L 890.7 601 C 881.3 601 862.7 601 844 601 C 825.3 601 806.7 601 787.8 601 C 769 601 750 601 731.2 601 C 712.3 601 693.7 601 675 601 C 656.3 601 637.7 601 619 601 C 600.3 601 581.7 601 562.8 601 C 544 601 525 601 506.2 601 C 487.3 601 468.7 601 450 601 C 431.3 601 412.7 601 394 601 C 375.3 601 356.7 601 337.8 601 C 319 601 300 601 281.2 601 C 262.3 601 243.7 601 225 601 C 206.3 601 187.7 601 169 601 C 150.3 601 131.7 601 112.8 601 C 94 601 75 601 56.2 601 C 37.3 601 18.7 601 9.3 601 L 0 601 Z" stroke-linecap="round" />
</g>
<g transform="matrix(1.61 0 0 1.61 563.65 255.68)"  >
<path style="stroke: none; stroke-width: 1; stroke-dasharray: none; stroke-linecap: butt; stroke-dashoffset: 0; stroke-linejoin: miter; stroke-miterlimit: 4; fill: rgb(126,111,116); fill-rule: nonzero; opacity: 1;" vector-effect="non-scaling-stroke"  transform=" translate(-450, -541)" d="M 0 481 L 9.3 486.3 C 18.7 491.7 37.3 502.3 56.2 505.8 C 75 509.3 94 505.7 112.8 510 C 131.7 514.3 150.3 526.7 169 528.5 C 187.7 530.3 206.3 521.7 225 517 C 243.7 512.3 262.3 511.7 281.2 510.8 C 300 510 319 509 337.8 508 C 356.7 507 375.3 506 394 502 C 412.7 498 431.3 491 450 493.2 C 468.7 495.3 487.3 506.7 506.2 509.2 C 525 511.7 544 505.3 562.8 501.8 C 581.7 498.3 600.3 497.7 619 502.8 C 637.7 508 656.3 519 675 524.7 C 693.7 530.3 712.3 530.7 731.2 527 C 750 523.3 769 515.7 787.8 514.8 C 806.7 514 825.3 520 844 522.2 C 862.7 524.3 881.3 522.7 890.7 521.8 L 900 521 L 900 601 L 890.7 601 C 881.3 601 862.7 601 844 601 C 825.3 601 806.7 601 787.8 601 C 769 601 750 601 731.2 601 C 712.3 601 693.7 601 675 601 C 656.3 601 637.7 601 619 601 C 600.3 601 581.7 601 562.8 601 C 544 601 525 601 506.2 601 C 487.3 601 468.7 601 450 601 C 431.3 601 412.7 601 394 601 C 375.3 601 356.7 601 337.8 601 C 319 601 300 601 281.2 601 C 262.3 601 243.7 601 225 601 C 206.3 601 187.7 601 169 601 C 150.3 601 131.7 601 112.8 601 C 94 601 75 601 56.2 601 C 37.3 601 18.7 601 9.3 601 L 0 601 Z" stroke-linecap="round" />
</g>
<g transform="matrix(1.61 0 0 1.61 582.23 259.85)"  >
<path style="stroke: none; stroke-width: 1; stroke-dasharray: none; stroke-linecap: butt; stroke-dashoffset: 0; stroke-linejoin: miter; stroke-miterlimit: 4; fill: rgb(165,149,153); fill-rule: nonzero; opacity: 1;" vector-effect="non-scaling-stroke"  transform=" translate(-450, -555.84)" d="M 0 512 L 9.3 511.3 C 18.7 510.7 37.3 509.3 56.2 514.7 C 75 520 94 532 112.8 536.8 C 131.7 541.7 150.3 539.3 169 540 C 187.7 540.7 206.3 544.3 225 543.7 C 243.7 543 262.3 538 281.2 539.2 C 300 540.3 319 547.7 337.8 545.5 C 356.7 543.3 375.3 531.7 394 527 C 412.7 522.3 431.3 524.7 450 525.5 C 468.7 526.3 487.3 525.7 506.2 527.3 C 525 529 544 533 562.8 537 C 581.7 541 600.3 545 619 540.2 C 637.7 535.3 656.3 521.7 675 519 C 693.7 516.3 712.3 524.7 731.2 524.8 C 750 525 769 517 787.8 517.2 C 806.7 517.3 825.3 525.7 844 528.2 C 862.7 530.7 881.3 527.3 890.7 525.7 L 900 524 L 900 601 L 890.7 601 C 881.3 601 862.7 601 844 601 C 825.3 601 806.7 601 787.8 601 C 769 601 750 601 731.2 601 C 712.3 601 693.7 601 675 601 C 656.3 601 637.7 601 619 601 C 600.3 601 581.7 601 562.8 601 C 544 601 525 601 506.2 601 C 487.3 601 468.7 601 450 601 C 431.3 601 412.7 601 394 601 C 375.3 601 356.7 601 337.8 601 C 319 601 300 601 281.2 601 C 262.3 601 243.7 601 225 601 C 206.3 601 187.7 601 169 601 C 150.3 601 131.7 601 112.8 601 C 94 601 75 601 56.2 601 C 37.3 601 18.7 601 9.3 601 L 0 601 Z" stroke-linecap="round" />
</g>
<g transform="matrix(1.61 0 0 1.61 581.14 258.72)"  >
<path style="stroke: none; stroke-width: 1; stroke-dasharray: none; stroke-linecap: butt; stroke-dashoffset: 0; stroke-linejoin: miter; stroke-miterlimit: 4; fill: rgb(205,190,191); fill-rule: nonzero; opacity: 1;" vector-effect="non-scaling-stroke"  transform=" translate(-450, -568.76)" d="M 0 539 L 9.3 542 C 18.7 545 37.3 551 56.2 555.3 C 75 559.7 94 562.3 112.8 564.3 C 131.7 566.3 150.3 567.7 169 564.3 C 187.7 561 206.3 553 225 552.5 C 243.7 552 262.3 559 281.2 558.3 C 300 557.7 319 549.3 337.8 549.2 C 356.7 549 375.3 557 394 559.7 C 412.7 562.3 431.3 559.7 450 559 C 468.7 558.3 487.3 559.7 506.2 556.2 C 525 552.7 544 544.3 562.8 541.5 C 581.7 538.7 600.3 541.3 619 541.7 C 637.7 542 656.3 540 675 538.5 C 693.7 537 712.3 536 731.2 536.8 C 750 537.7 769 540.3 787.8 540.7 C 806.7 541 825.3 539 844 541 C 862.7 543 881.3 549 890.7 552 L 900 555 L 900 601 L 890.7 601 C 881.3 601 862.7 601 844 601 C 825.3 601 806.7 601 787.8 601 C 769 601 750 601 731.2 601 C 712.3 601 693.7 601 675 601 C 656.3 601 637.7 601 619 601 C 600.3 601 581.7 601 562.8 601 C 544 601 525 601 506.2 601 C 487.3 601 468.7 601 450 601 C 431.3 601 412.7 601 394 601 C 375.3 601 356.7 601 337.8 601 C 319 601 300 601 281.2 601 C 262.3 601 243.7 601 225 601 C 206.3 601 187.7 601 169 601 C 150.3 601 131.7 601 112.8 601 C 94 601 75 601 56.2 601 C 37.3 601 18.7 601 9.3 601 L 0 601 Z" stroke-linecap="round" />
</g>
<g transform="matrix(3.46 0 0 8.61 503.03 353.94)"  >
<path style="stroke: none; stroke-width: 0; stroke-dasharray: none; stroke-linecap: butt; stroke-dashoffset: 0; stroke-linejoin: miter; stroke-miterlimit: 4; fill: rgb(247,232,232); fill-rule: nonzero; opacity: 1;" vector-effect="non-scaling-stroke"  transform=" translate(-450, -579)" d="M 0 565 L 9.3 567.7 C 18.7 570.3 37.3 575.7 56.2 577.7 C 75 579.7 94 578.3 112.8 576.3 C 131.7 574.3 150.3 571.7 169 570.7 C 187.7 569.7 206.3 570.3 225 572.8 C 243.7 575.3 262.3 579.7 281.2 577.7 C 300 575.7 319 567.3 337.8 566.5 C 356.7 565.7 375.3 572.3 394 574.7 C 412.7 577 431.3 575 450 572.7 C 468.7 570.3 487.3 567.7 506.2 569 C 525 570.3 544 575.7 562.8 575.2 C 581.7 574.7 600.3 568.3 619 568.2 C 637.7 568 656.3 574 675 576.2 C 693.7 578.3 712.3 576.7 731.2 577.2 C 750 577.7 769 580.3 787.8 581.7 C 806.7 583 825.3 583 844 578.7 C 862.7 574.3 881.3 565.7 890.7 561.3 L 900 557 L 900 601 L 890.7 601 C 881.3 601 862.7 601 844 601 C 825.3 601 806.7 601 787.8 601 C 769 601 750 601 731.2 601 C 712.3 601 693.7 601 675 601 C 656.3 601 637.7 601 619 601 C 600.3 601 581.7 601 562.8 601 C 544 601 525 601 506.2 601 C 487.3 601 468.7 601 450 601 C 431.3 601 412.7 601 394 601 C 375.3 601 356.7 601 337.8 601 C 319 601 300 601 281.2 601 C 262.3 601 243.7 601 225 601 C 206.3 601 187.7 601 169 601 C 150.3 601 131.7 601 112.8 601 C 94 601 75 601 56.2 601 C 37.3 601 18.7 601 9.3 601 L 0 601 Z" stroke-linecap="round" />
</g>
</svg>