<?xml version="1.0" encoding="UTF-8" standalone="no" ?>
<!DOCTYPE svg PUBLIC "-//W3C//DTD SVG 1.1//EN" "http://www.w3.org/Graphics/SVG/1.1/DTD/svg11.dtd">
<svg xmlns="http://www.w3.org/2000/svg" xmlns:xlink="http://www.w3.org/1999/xlink" version="1.1" width="1080" height="300" viewBox="0 0 1080 300" xml:space="preserve">
<desc>Created with Fabric.js 5.2.4</desc>
<defs>
</defs>
<g transform="matrix(0 0 0 0 0 0)" id="e87e7c32-3314-4242-a37f-e5335abe6130"  >
</g>
<g transform="matrix(1 0 0 1 540 150)" id="0dbf151c-a1ad-42fe-b127-0d5f2ea8a327"  >
<rect style="stroke: none; stroke-width: 1; stroke-dasharray: none; stroke-linecap: butt; stroke-dashoffset: 0; stroke-linejoin: miter; stroke-miterlimit: 4; fill: rgb(255,255,255); fill-rule: nonzero; opacity: 1; visibility: hidden;" vector-effect="non-scaling-stroke"  x="-540" y="-150" rx="0" ry="0" width="1080" height="300" />
</g>
<g transform="matrix(1.3 0 0 1.3 64.65 -487.92)"  >
<rect style="stroke: none; stroke-width: 1; stroke-dasharray: none; stroke-linecap: butt; stroke-dashoffset: 0; stroke-linejoin: miter; stroke-miterlimit: 4; fill: rgb(247,232,232); fill-rule: nonzero; opacity: 1;" vector-effect="non-scaling-stroke"  x="-450" y="-300" rx="0" ry="0" width="900" height="600" />
</g>
<g transform="matrix(1.3 0 0 1.3 581.75 169.68)"  >
<path style="stroke: none; stroke-width: 1; stroke-dasharray: none; stroke-linecap: butt; stroke-dashoffset: 0; stroke-linejoin: miter; stroke-miterlimit: 4; fill: rgb(21,8,22); fill-rule: nonzero; opacity: 1;" vector-effect="non-scaling-stroke"  transform=" translate(-450, -498.5)" d="M 0 396 L 7.5 414.2 C 15 432.3 30 468.7 45 480.2 C 60 491.7 75 478.3 90 460.2 C 105 442 120 419 135 415.5 C 150 412 165 428 180 447.7 C 195 467.3 210 490.7 225 486 C 240 481.3 255 448.7 270 434.3 C 285 420 300 424 315 434.5 C 330 445 345 462 360 460.3 C 375 458.7 390 438.3 405 428.2 C 420 418 435 418 450 419.7 C 465 421.3 480 424.7 495 437.7 C 510 450.7 525 473.3 540 481.8 C 555 490.3 570 484.7 585 474.3 C 600 464 615 449 630 450.7 C 645 452.3 660 470.7 675 464 C 690 457.3 705 425.7 720 429.2 C 735 432.7 750 471.3 765 476.2 C 780 481 795 452 810 438.3 C 825 424.7 840 426.3 855 436.5 C 870 446.7 885 465.3 892.5 474.7 L 900 484 L 900 601 L 892.5 601 C 885 601 870 601 855 601 C 840 601 825 601 810 601 C 795 601 780 601 765 601 C 750 601 735 601 720 601 C 705 601 690 601 675 601 C 660 601 645 601 630 601 C 615 601 600 601 585 601 C 570 601 555 601 540 601 C 525 601 510 601 495 601 C 480 601 465 601 450 601 C 435 601 420 601 405 601 C 390 601 375 601 360 601 C 345 601 330 601 315 601 C 300 601 285 601 270 601 C 255 601 240 601 225 601 C 210 601 195 601 180 601 C 165 601 150 601 135 601 C 120 601 105 601 90 601 C 75 601 60 601 45 601 C 30 601 15 601 7.5 601 L 0 601 Z" stroke-linecap="round" />
</g>
<g transform="matrix(1.3 0 0 1.3 581.75 194.93)"  >
<path style="stroke: none; stroke-width: 1; stroke-dasharray: none; stroke-linecap: butt; stroke-dashoffset: 0; stroke-linejoin: miter; stroke-miterlimit: 4; fill: rgb(48,37,46); fill-rule: nonzero; opacity: 1;" vector-effect="non-scaling-stroke"  transform=" translate(-450, -518.05)" d="M 0 483 L 7.5 479.5 C 15 476 30 469 45 461.5 C 60 454 75 446 90 447.3 C 105 448.7 120 459.3 135 457.3 C 150 455.3 165 440.7 180 436.5 C 195 432.3 210 438.7 225 440.3 C 240 442 255 439 270 452.2 C 285 465.3 300 494.7 315 497.3 C 330 500 345 476 360 471.2 C 375 466.3 390 480.7 405 492.8 C 420 505 435 515 450 510.5 C 465 506 480 487 495 483.7 C 510 480.3 525 492.7 540 492.5 C 555 492.3 570 479.7 585 469 C 600 458.3 615 449.7 630 456.5 C 645 463.3 660 485.7 675 496.3 C 690 507 705 506 720 498.8 C 735 491.7 750 478.3 765 474.5 C 780 470.7 795 476.3 810 483.5 C 825 490.7 840 499.3 855 499.2 C 870 499 885 490 892.5 485.5 L 900 481 L 900 601 L 892.5 601 C 885 601 870 601 855 601 C 840 601 825 601 810 601 C 795 601 780 601 765 601 C 750 601 735 601 720 601 C 705 601 690 601 675 601 C 660 601 645 601 630 601 C 615 601 600 601 585 601 C 570 601 555 601 540 601 C 525 601 510 601 495 601 C 480 601 465 601 450 601 C 435 601 420 601 405 601 C 390 601 375 601 360 601 C 345 601 330 601 315 601 C 300 601 285 601 270 601 C 255 601 240 601 225 601 C 210 601 195 601 180 601 C 165 601 150 601 135 601 C 120 601 105 601 90 601 C 75 601 60 601 45 601 C 30 601 15 601 7.5 601 L 0 601 Z" stroke-linecap="round" />
</g>
<g transform="matrix(1.3 0 0 1.3 581.75 201.97)"  >
<path style="stroke: none; stroke-width: 1; stroke-dasharray: none; stroke-linecap: butt; stroke-dashoffset: 0; stroke-linejoin: miter; stroke-miterlimit: 4; fill: rgb(78,65,73); fill-rule: nonzero; opacity: 1;" vector-effect="non-scaling-stroke"  transform=" translate(-450, -523.5)" d="M 0 499 L 7.5 492 C 15 485 30 471 45 464 C 60 457 75 457 90 467 C 105 477 120 497 135 503.3 C 150 509.7 165 502.3 180 504.5 C 195 506.7 210 518.3 225 517.5 C 240 516.7 255 503.3 270 497.7 C 285 492 300 494 315 491.8 C 330 489.7 345 483.3 360 477.5 C 375 471.7 390 466.3 405 463.2 C 420 460 435 459 450 467.5 C 465 476 480 494 495 506.8 C 510 519.7 525 527.3 540 529.7 C 555 532 570 529 585 514.3 C 600 499.7 615 473.3 630 459 C 645 444.7 660 442.3 675 456.5 C 690 470.7 705 501.3 720 502 C 735 502.7 750 473.3 765 461.3 C 780 449.3 795 454.7 810 467 C 825 479.3 840 498.7 855 496.3 C 870 494 885 470 892.5 458 L 900 446 L 900 601 L 892.5 601 C 885 601 870 601 855 601 C 840 601 825 601 810 601 C 795 601 780 601 765 601 C 750 601 735 601 720 601 C 705 601 690 601 675 601 C 660 601 645 601 630 601 C 615 601 600 601 585 601 C 570 601 555 601 540 601 C 525 601 510 601 495 601 C 480 601 465 601 450 601 C 435 601 420 601 405 601 C 390 601 375 601 360 601 C 345 601 330 601 315 601 C 300 601 285 601 270 601 C 255 601 240 601 225 601 C 210 601 195 601 180 601 C 165 601 150 601 135 601 C 120 601 105 601 90 601 C 75 601 60 601 45 601 C 30 601 15 601 7.5 601 L 0 601 Z" stroke-linecap="round" />
</g>
<g transform="matrix(1.3 0 0 1.3 581.75 222.28)"  >
<path style="stroke: none; stroke-width: 1; stroke-dasharray: none; stroke-linecap: butt; stroke-dashoffset: 0; stroke-linejoin: miter; stroke-miterlimit: 4; fill: rgb(110,95,102); fill-rule: nonzero; opacity: 1;" vector-effect="non-scaling-stroke"  transform=" translate(-450, -539.23)" d="M 0 521 L 7.5 522.7 C 15 524.3 30 527.7 45 524 C 60 520.3 75 509.7 90 498.7 C 105 487.7 120 476.3 135 483 C 150 489.7 165 514.3 180 527.3 C 195 540.3 210 541.7 225 531.8 C 240 522 255 501 270 499 C 285 497 300 514 315 512.5 C 330 511 345 491 360 491.7 C 375 492.3 390 513.7 405 516.5 C 420 519.3 435 503.7 450 492.2 C 465 480.7 480 473.3 495 480 C 510 486.7 525 507.3 540 513.7 C 555 520 570 512 585 505.3 C 600 498.7 615 493.3 630 490 C 645 486.7 660 485.3 675 483.5 C 690 481.7 705 479.3 720 489.3 C 735 499.3 750 521.7 765 522.7 C 780 523.7 795 503.3 810 496.8 C 825 490.3 840 497.7 855 502 C 870 506.3 885 507.7 892.5 508.3 L 900 509 L 900 601 L 892.5 601 C 885 601 870 601 855 601 C 840 601 825 601 810 601 C 795 601 780 601 765 601 C 750 601 735 601 720 601 C 705 601 690 601 675 601 C 660 601 645 601 630 601 C 615 601 600 601 585 601 C 570 601 555 601 540 601 C 525 601 510 601 495 601 C 480 601 465 601 450 601 C 435 601 420 601 405 601 C 390 601 375 601 360 601 C 345 601 330 601 315 601 C 300 601 285 601 270 601 C 255 601 240 601 225 601 C 210 601 195 601 180 601 C 165 601 150 601 135 601 C 120 601 105 601 90 601 C 75 601 60 601 45 601 C 30 601 15 601 7.5 601 L 0 601 Z" stroke-linecap="round" />
</g>
<g transform="matrix(1.3 0 0 1.3 581.75 233.96)"  >
<path style="stroke: none; stroke-width: 1; stroke-dasharray: none; stroke-linecap: butt; stroke-dashoffset: 0; stroke-linejoin: miter; stroke-miterlimit: 4; fill: rgb(143,127,132); fill-rule: nonzero; opacity: 1;" vector-effect="non-scaling-stroke"  transform=" translate(-450, -548.27)" d="M 0 547 L 7.5 537 C 15 527 30 507 45 502.7 C 60 498.3 75 509.7 90 520.5 C 105 531.3 120 541.7 135 546.8 C 150 552 165 552 180 552.8 C 195 553.7 210 555.3 225 550.2 C 240 545 255 533 270 532.8 C 285 532.7 300 544.3 315 547.3 C 330 550.3 345 544.7 360 543.5 C 375 542.3 390 545.7 405 537.2 C 420 528.7 435 508.3 450 500.2 C 465 492 480 496 495 501.8 C 510 507.7 525 515.3 540 516.8 C 555 518.3 570 513.7 585 518.8 C 600 524 615 539 630 545 C 645 551 660 548 675 542.8 C 690 537.7 705 530.3 720 525.2 C 735 520 750 517 765 517.8 C 780 518.7 795 523.3 810 524.3 C 825 525.3 840 522.7 855 520.3 C 870 518 885 516 892.5 515 L 900 514 L 900 601 L 892.5 601 C 885 601 870 601 855 601 C 840 601 825 601 810 601 C 795 601 780 601 765 601 C 750 601 735 601 720 601 C 705 601 690 601 675 601 C 660 601 645 601 630 601 C 615 601 600 601 585 601 C 570 601 555 601 540 601 C 525 601 510 601 495 601 C 480 601 465 601 450 601 C 435 601 420 601 405 601 C 390 601 375 601 360 601 C 345 601 330 601 315 601 C 300 601 285 601 270 601 C 255 601 240 601 225 601 C 210 601 195 601 180 601 C 165 601 150 601 135 601 C 120 601 105 601 90 601 C 75 601 60 601 45 601 C 30 601 15 601 7.5 601 L 0 601 Z" stroke-linecap="round" />
</g>
<g transform="matrix(1.3 0 0 1.3 581.75 242.85)"  >
<path style="stroke: none; stroke-width: 1; stroke-dasharray: none; stroke-linecap: butt; stroke-dashoffset: 0; stroke-linejoin: miter; stroke-miterlimit: 4; fill: rgb(177,161,164); fill-rule: nonzero; opacity: 1;" vector-effect="non-scaling-stroke"  transform=" translate(-450, -555.15)" d="M 0 558 L 7.5 551.8 C 15 545.7 30 533.3 45 528 C 60 522.7 75 524.3 90 527.3 C 105 530.3 120 534.7 135 532.5 C 150 530.3 165 521.7 180 525.3 C 195 529 210 545 225 547.3 C 240 549.7 255 538.3 270 534.3 C 285 530.3 300 533.7 315 536.3 C 330 539 345 541 360 542.8 C 375 544.7 390 546.3 405 546.8 C 420 547.3 435 546.7 450 541.5 C 465 536.3 480 526.7 495 524.2 C 510 521.7 525 526.3 540 525 C 555 523.7 570 516.3 585 512.3 C 600 508.3 615 507.7 630 514.2 C 645 520.7 660 534.3 675 537.7 C 690 541 705 534 720 530.3 C 735 526.7 750 526.3 765 523.5 C 780 520.7 795 515.3 810 514.3 C 825 513.3 840 516.7 855 519.8 C 870 523 885 526 892.5 527.5 L 900 529 L 900 601 L 892.5 601 C 885 601 870 601 855 601 C 840 601 825 601 810 601 C 795 601 780 601 765 601 C 750 601 735 601 720 601 C 705 601 690 601 675 601 C 660 601 645 601 630 601 C 615 601 600 601 585 601 C 570 601 555 601 540 601 C 525 601 510 601 495 601 C 480 601 465 601 450 601 C 435 601 420 601 405 601 C 390 601 375 601 360 601 C 345 601 330 601 315 601 C 300 601 285 601 270 601 C 255 601 240 601 225 601 C 210 601 195 601 180 601 C 165 601 150 601 135 601 C 120 601 105 601 90 601 C 75 601 60 601 45 601 C 30 601 15 601 7.5 601 L 0 601 Z" stroke-linecap="round" />
</g>
<g transform="matrix(1.3 0 0 1.3 581.75 260.7)"  >
<path style="stroke: none; stroke-width: 1; stroke-dasharray: none; stroke-linecap: butt; stroke-dashoffset: 0; stroke-linejoin: miter; stroke-miterlimit: 4; fill: rgb(211,196,197); fill-rule: nonzero; opacity: 1;" vector-effect="non-scaling-stroke"  transform=" translate(-450, -568.97)" d="M 0 560 L 7.5 559.2 C 15 558.3 30 556.7 45 552.3 C 60 548 75 541 90 538.3 C 105 535.7 120 537.3 135 539.2 C 150 541 165 543 180 547 C 195 551 210 557 225 561.5 C 240 566 255 569 270 566.3 C 285 563.7 300 555.3 315 549.3 C 330 543.3 345 539.7 360 544.7 C 375 549.7 390 563.3 405 565.5 C 420 567.7 435 558.3 450 554.2 C 465 550 480 551 495 550.5 C 510 550 525 548 540 548.8 C 555 549.7 570 553.3 585 555.3 C 600 557.3 615 557.7 630 561.5 C 645 565.3 660 572.7 675 568 C 690 563.3 705 546.7 720 543.2 C 735 539.7 750 549.3 765 553.8 C 780 558.3 795 557.7 810 555.3 C 825 553 840 549 855 548.3 C 870 547.7 885 550.3 892.5 551.7 L 900 553 L 900 601 L 892.5 601 C 885 601 870 601 855 601 C 840 601 825 601 810 601 C 795 601 780 601 765 601 C 750 601 735 601 720 601 C 705 601 690 601 675 601 C 660 601 645 601 630 601 C 615 601 600 601 585 601 C 570 601 555 601 540 601 C 525 601 510 601 495 601 C 480 601 465 601 450 601 C 435 601 420 601 405 601 C 390 601 375 601 360 601 C 345 601 330 601 315 601 C 300 601 285 601 270 601 C 255 601 240 601 225 601 C 210 601 195 601 180 601 C 165 601 150 601 135 601 C 120 601 105 601 90 601 C 75 601 60 601 45 601 C 30 601 15 601 7.5 601 L 0 601 Z" stroke-linecap="round" />
</g>
<g transform="matrix(1.3 0 0 1.3 581.75 273.77)"  >
<path style="stroke: none; stroke-width: 1; stroke-dasharray: none; stroke-linecap: butt; stroke-dashoffset: 0; stroke-linejoin: miter; stroke-miterlimit: 4; fill: rgb(247,232,232); fill-rule: nonzero; opacity: 1;" vector-effect="non-scaling-stroke"  transform=" translate(-450, -579.09)" d="M 0 581 L 7.5 581.8 C 15 582.7 30 584.3 45 585 C 60 585.7 75 585.3 90 584.7 C 105 584 120 583 135 580.5 C 150 578 165 574 180 574.5 C 195 575 210 580 225 580.5 C 240 581 255 577 270 575.2 C 285 573.3 300 573.7 315 574 C 330 574.3 345 574.7 360 572.7 C 375 570.7 390 566.3 405 564 C 420 561.7 435 561.3 450 561.2 C 465 561 480 561 495 561.5 C 510 562 525 563 540 562 C 555 561 570 558 585 557.3 C 600 556.7 615 558.3 630 564.3 C 645 570.3 660 580.7 675 583.7 C 690 586.7 705 582.3 720 576.8 C 735 571.3 750 564.7 765 563.8 C 780 563 795 568 810 573.3 C 825 578.7 840 584.3 855 585 C 870 585.7 885 581.3 892.5 579.2 L 900 577 L 900 601 L 892.5 601 C 885 601 870 601 855 601 C 840 601 825 601 810 601 C 795 601 780 601 765 601 C 750 601 735 601 720 601 C 705 601 690 601 675 601 C 660 601 645 601 630 601 C 615 601 600 601 585 601 C 570 601 555 601 540 601 C 525 601 510 601 495 601 C 480 601 465 601 450 601 C 435 601 420 601 405 601 C 390 601 375 601 360 601 C 345 601 330 601 315 601 C 300 601 285 601 270 601 C 255 601 240 601 225 601 C 210 601 195 601 180 601 C 165 601 150 601 135 601 C 120 601 105 601 90 601 C 75 601 60 601 45 601 C 30 601 15 601 7.5 601 L 0 601 Z" stroke-linecap="round" />
</g>
</svg>